<svg width="80" height="58" viewBox="0 0 80 58" fill="none" xmlns="http://www.w3.org/2000/svg">
<path d="M9.6925 7.68L14.6605 19.776L19.6525 7.68H22.0285V24H19.9885V17.016L20.2525 10.728L15.5725 22.08H13.6045L9.0205 10.68L9.2845 17.016V24H7.2445V7.68H9.6925ZM28.7989 9.216H26.5909V7.008H28.7989V9.216ZM28.6789 24H26.7109V12.12H28.6789V24ZM38.6339 13.728C38.1859 13.728 37.6579 13.84 37.0499 14.064C36.4579 14.288 35.7379 14.744 34.8899 15.432V24H32.9219V12.12H34.7939V13.776C35.6419 13.056 36.4099 12.56 37.0979 12.288C37.8019 12.016 38.4739 11.88 39.1139 11.88C40.2179 11.88 41.0579 12.232 41.6339 12.936C42.2259 13.624 42.5219 14.608 42.5219 15.888V24H40.5539V16.176C40.5539 14.544 39.9139 13.728 38.6339 13.728ZM44.8328 9.648V7.68H56.4248V9.648H51.6728V24H49.5848V9.648H44.8328ZM60.9318 9.216H58.7238V7.008H60.9318V9.216ZM60.8118 24H58.8438V12.12H60.8118V24ZM66.4467 17.352V18.768C66.4467 19.984 66.6707 20.904 67.1187 21.528C67.5667 22.136 68.2787 22.44 69.2547 22.44C70.2147 22.44 71.2467 22.192 72.3507 21.696L72.9507 23.352C71.6387 23.944 70.3667 24.24 69.1347 24.24C67.5987 24.24 66.4307 23.752 65.6307 22.776C64.8307 21.8 64.4307 20.464 64.4307 18.768V17.352C64.4307 15.656 64.8307 14.32 65.6307 13.344C66.4307 12.368 67.5987 11.88 69.1347 11.88C69.7107 11.88 70.3027 11.96 70.9107 12.12C71.5347 12.264 72.1587 12.472 72.7827 12.744L72.1827 14.424C71.6547 14.2 71.1427 14.024 70.6467 13.896C70.1667 13.768 69.7027 13.704 69.2547 13.704C68.2787 13.704 67.5667 14.016 67.1187 14.64C66.6707 15.248 66.4467 16.152 66.4467 17.352Z" fill="#FDB92A"/>
<path fill-rule="evenodd" clip-rule="evenodd" d="M14.7239 28C10.3599 28 0 33.5373 0 40.3679C4.02785 40.3679 5.72122 40.1113 7.42262 41.1286C9.12403 42.146 8.65028 43.9452 10.766 45.2595C12.2485 46.1804 13.1882 45.3297 14.7239 44.8444V28Z" fill="#FFDD95"/>
<path d="M10.6012 33.4419C11.2517 33.4419 11.7791 32.9989 11.7791 32.4524C11.7791 31.906 11.2517 31.463 10.6012 31.463C9.95065 31.463 9.42328 31.906 9.42328 32.4524C9.42328 32.9989 9.95065 33.4419 10.6012 33.4419Z" fill="#0A3586"/>
<path fill-rule="evenodd" clip-rule="evenodd" d="M14.7239 28C19.088 28 29.4479 33.5373 29.4479 40.3679C25.42 40.3679 23.7267 40.1113 22.0253 41.1286C20.3239 42.146 20.7976 43.9452 18.6819 45.2595C17.1994 46.1804 16.2596 45.3297 14.7239 44.8444V28Z" fill="#ED9111"/>
<path d="M18.8466 33.4419C19.4972 33.4419 20.0245 32.9989 20.0245 32.4524C20.0245 31.906 19.4972 31.463 18.8466 31.463C18.1961 31.463 17.6687 31.906 17.6687 32.4524C17.6687 32.9989 18.1961 33.4419 18.8466 33.4419Z" fill="#0A3586"/>
<path d="M14.6968 28.1445V55.3132C14.6968 55.8575 15.228 56.2987 15.8704 56.2987H19.3923C20.0405 56.2987 20.5659 55.8605 20.5659 55.309V49.3472C20.5659 48.8006 21.0893 48.3575 21.7391 48.3575H27.0078C27.6557 48.3575 28.1809 48.7956 28.1809 49.3449V51.3234C28.1809 51.8687 27.6508 52.3108 27.0081 52.3108H25.2989C24.6511 52.3108 24.126 51.8629 24.126 51.3206V50.352" stroke="#FFAF40" stroke-width="3.36762" stroke-linecap="round"/>
<path d="M35.1325 52V35.68H40.2205C41.7885 35.68 42.9805 36.096 43.7965 36.928C44.6285 37.744 45.0445 38.84 45.0445 40.216V41.488C45.0445 42.864 44.6285 43.968 43.7965 44.8C42.9805 45.632 41.7885 46.048 40.2205 46.048H37.2205V52H35.1325ZM40.2205 37.648H37.2205V44.104H40.2205C41.0845 44.104 41.7405 43.872 42.1885 43.408C42.6525 42.944 42.8845 42.304 42.8845 41.488V40.216C42.8845 39.416 42.6525 38.792 42.1885 38.344C41.7405 37.88 41.0845 37.648 40.2205 37.648ZM56.629 51.304C55.909 51.656 55.189 51.896 54.469 52.024C53.749 52.168 53.085 52.24 52.477 52.24C50.765 52.24 49.485 51.752 48.637 50.776C47.805 49.8 47.389 48.464 47.389 46.768V45.328C47.389 43.68 47.805 42.36 48.637 41.368C49.485 40.376 50.677 39.88 52.213 39.88C53.029 39.88 53.773 40.048 54.445 40.384C55.133 40.704 55.677 41.2 56.077 41.872C56.493 42.528 56.701 43.376 56.701 44.416C56.701 45.088 56.605 45.856 56.413 46.72H49.333V46.768C49.333 47.984 49.581 48.904 50.077 49.528C50.589 50.152 51.405 50.464 52.525 50.464C53.037 50.464 53.597 50.4 54.205 50.272C54.829 50.144 55.437 49.944 56.029 49.672L56.629 51.304ZM52.213 41.608C51.285 41.608 50.581 41.912 50.101 42.52C49.637 43.112 49.381 43.952 49.333 45.04H54.709C54.757 44.752 54.781 44.48 54.781 44.224C54.781 43.328 54.525 42.672 54.013 42.256C53.517 41.824 52.917 41.608 52.213 41.608ZM66.6348 51.568C65.7388 52.016 64.7868 52.24 63.7788 52.24C62.9148 52.24 62.2348 52.064 61.7388 51.712C61.2588 51.36 60.9148 50.888 60.7068 50.296C60.5148 49.704 60.4188 49.048 60.4188 48.328V41.848H58.3548V40.12H60.4188V36.808H62.3868V40.12H66.2748V41.848H62.3868V48.256C62.3868 49.088 62.5228 49.664 62.7948 49.984C63.0828 50.288 63.5228 50.44 64.1148 50.44C64.4028 50.44 64.6988 50.408 65.0028 50.344C65.3228 50.264 65.6668 50.136 66.0348 49.96L66.6348 51.568ZM72.1279 50.488C73.7279 50.488 74.5279 49.944 74.5279 48.856C74.5279 48.392 74.3839 48.024 74.0959 47.752C73.8079 47.48 73.2799 47.248 72.5119 47.056L71.1919 46.72C70.2159 46.48 69.4879 46.064 69.0079 45.472C68.5279 44.864 68.2879 44.144 68.2879 43.312C68.2879 42.704 68.4239 42.144 68.6959 41.632C68.9679 41.104 69.3999 40.68 69.9919 40.36C70.5839 40.04 71.3519 39.88 72.2959 39.88C72.9039 39.88 73.5199 39.952 74.1439 40.096C74.7839 40.224 75.4319 40.448 76.0879 40.768L75.4639 42.424C74.2959 41.896 73.2399 41.632 72.2959 41.632C70.9039 41.632 70.2079 42.152 70.2079 43.192C70.2079 43.592 70.3359 43.936 70.5919 44.224C70.8479 44.512 71.3279 44.744 72.0319 44.92L73.3519 45.256C74.4079 45.512 75.1839 45.928 75.6799 46.504C76.1759 47.08 76.4239 47.824 76.4239 48.736C76.4239 49.392 76.2799 49.992 75.9919 50.536C75.7199 51.064 75.2719 51.48 74.6479 51.784C74.0399 52.088 73.2159 52.24 72.1759 52.24C71.4879 52.24 70.7999 52.168 70.1119 52.024C69.4399 51.88 68.7439 51.648 68.0239 51.328L68.5519 49.696C69.2399 49.968 69.8639 50.168 70.4239 50.296C70.9839 50.424 71.5519 50.488 72.1279 50.488Z" fill="#FDB92A"/>
</svg>
